<?xml version="1.0" encoding="UTF-8"?>
<svg width="132px" height="137px" viewBox="0 0 132 137" version="1.1" xmlns="http://www.w3.org/2000/svg" xmlns:xlink="http://www.w3.org/1999/xlink">
    <!-- Generator: Sketch 42 (36781) - http://www.bohemiancoding.com/sketch -->
    <title>1</title>
    <defs>
        <rect id="path-1" x="3" y="60" width="77" height="40" rx="20"></rect>
        <mask id="mask-2" maskContentUnits="userSpaceOnUse" maskUnits="objectBoundingBox" x="0" y="0" width="77" height="40" fill="white">
            <use xlink:href="#path-1"></use>
        </mask>
        <rect id="path-3" x="41.3880028" y="22.1798563" width="77" height="40" rx="20"></rect>
        <mask id="mask-4" maskContentUnits="userSpaceOnUse" maskUnits="objectBoundingBox" x="0" y="0" width="77" height="40" fill="white">
            <use xlink:href="#path-3"></use>
        </mask>
    </defs>
    <g id="Page-1" stroke="none" stroke-width="1" fill="none" fill-rule="evenodd">
        <g id="Artboard" transform="translate(-10.000000, -7.000000)">
            <g id="1" transform="translate(10.000000, 7.000000)">
                <g id="Group" transform="translate(19.000000, 23.000000)" stroke="#000000" stroke-width="16" stroke-linecap="round" stroke-linejoin="round">
                    <use id="Rectangle" mask="url(#mask-2)" transform="translate(41.500000, 80.000000) rotate(-45.000000) translate(-41.500000, -80.000000) " xlink:href="#path-1"></use>
                    <use id="Rectangle-Copy" mask="url(#mask-4)" transform="translate(79.888003, 42.179856) rotate(-45.000000) translate(-79.888003, -42.179856) " xlink:href="#path-3"></use>
                </g>
                <path d="M37.6638981,33.0595238 L37.6638981,17.4404762 L37.6638981,15 L32.7081949,15 L32.7081949,17.4404762 L32.7081949,33.0595238 L16.8499446,33.0595238 L14.372093,33.0595238 L14.372093,37.9404762 L16.8499446,37.9404762 L32.7081949,37.9404762 L32.7081949,53.5595238 L32.7081949,56 L37.6638981,56 L37.6638981,53.5595238 L37.6638981,37.9404762 L53.5221484,37.9404762 L56,37.9404762 L56,33.0595238 L53.5221484,33.0595238 L37.6638981,33.0595238 Z M35,70 C15.6700338,70 0,54.3299662 0,35 C0,15.6700338 15.6700338,0 35,0 C54.3299662,0 70,15.6700338 70,35 C70,54.3299662 54.3299662,70 35,70 Z" id="Combined-Shape" fill="#000000"></path>
                <g id="Group-2" transform="translate(10.000000, 14.000000)"></g>
            </g>
        </g>
    </g>
</svg>